<svg width="32" height="32" viewBox="0 0 32 32" fill="none" xmlns="http://www.w3.org/2000/svg">
<path d="M4.66667 27.3334C5.77334 28.44 7.56 28.44 8.66667 27.3334L26 10C27.1067 8.89338 27.1067 7.10671 26 6.00004C24.8933 4.89338 23.1067 4.89338 22 6.00004L4.66667 23.3334C3.56 24.44 3.56 26.2267 4.66667 27.3334Z" stroke="white" stroke-width="2" stroke-linecap="round" stroke-linejoin="round"/>
<path d="M24.0134 11.9867L20.0134 7.98669" stroke="white" stroke-width="2" stroke-linecap="round" stroke-linejoin="round"/>
<path d="M11.3333 3.25329L13.3333 2.66663L12.7466 4.66663L13.3333 6.66663L11.3333 6.07996L9.33331 6.66663L9.91998 4.66663L9.33331 2.66663L11.3333 3.25329Z" stroke="white" stroke-width="2" stroke-linecap="round" stroke-linejoin="round"/>
<path d="M6 11.2533L8 10.6666L7.41333 12.6666L8 14.6666L6 14.08L4 14.6666L4.58667 12.6666L4 10.6666L6 11.2533Z" stroke="white" stroke-width="2" stroke-linecap="round" stroke-linejoin="round"/>
<path d="M26 17.92L28 17.3334L27.4133 19.3334L28 21.3334L26 20.7467L24 21.3334L24.5867 19.3334L24 17.3334L26 17.92Z" stroke="white" stroke-width="2" stroke-linecap="round" stroke-linejoin="round"/>
</svg>
